# xmcd CD database file
#
# Track frame offsets:
#	150
#	10518
#	24644
#	35530
#	48216
#	61990
#	72069
#	84307
#	95228
#	108790
#	121237
#	132487
#
# Disc length: 1921 seconds
#
# Revision: 4
# Processed by: cddbd v1.5.2PL0 Copyright (c) Steve Scherf et al.
# Submitted via: CDex 1.70beta2
#
DISCID=93077f0c
DTITLE=Dean Martin - The Bestr Of Dean Martin
DYEAR=1990
DGENRE=Jazz
TTITLE0=Memories Are Made Of This
TTITLE1=That's Amore
TTITLE2=Return To Me
TTITLE3=Standing On The Corner
TTITLE4=You Belong To Me
TTITLE5=You're Nobody 'Til Somebody Loves You
TTITLE6=Sway
TTITLE7=Innamorata
TTITLE8=Volare
TTITLE9=Angel Baby
TTITLE10=On An Evening In Roma
TTITLE11=I'll Always Love You
EXTD=YEAR: 1990
EXTT0=
EXTT1=
EXTT2=
EXTT3=
EXTT4=
EXTT5=
EXTT6=
EXTT7=
EXTT8=
EXTT9=
EXTT10=
EXTT11=
PLAYORDER=
